<?xml version="1.0" standalone="no"?>
<!DOCTYPE svg PUBLIC "-//W3C//DTD SVG 20010904//EN"
 "http://www.w3.org/TR/2001/REC-SVG-20010904/DTD/svg10.dtd">
<svg version="1.0" xmlns="http://www.w3.org/2000/svg"
 width="872.000000pt" height="705.000000pt" viewBox="0 0 872.000000 705.000000"
 preserveAspectRatio="xMidYMid meet">

<g transform="translate(0.000000,705.000000) scale(0.100000,-0.100000)"
fill="#000000" stroke="none">
<path d="M4274 5536 c-92 -18 -135 -32 -209 -69 -220 -109 -370 -296 -426
-532 -18 -79 -19 -120 -17 -986 l3 -904 338 -3 338 -2 38 40 c30 32 45 40 72
40 41 0 77 -23 89 -56 l10 -24 342 2 343 3 3 904 c2 870 1 907 -18 987 -55
234 -202 419 -419 528 -142 72 -338 101 -487 72z m279 -20 c283 -54 517 -263
596 -531 38 -128 41 -214 41 -1077 l0 -837 -42 -6 c-24 -3 -155 -4 -293 -3
l-250 3 -3 107 c-2 101 -4 109 -26 123 -28 19 -126 32 -126 18 0 -6 23 -13 51
-16 57 -7 64 -11 54 -26 -8 -14 -264 -15 -285 -1 -22 14 -8 20 64 27 46 4 66
3 66 -6 0 -6 6 -11 13 -11 9 0 12 58 12 257 l0 257 90 13 c113 16 216 47 280
83 55 32 125 92 125 108 0 6 -88 92 -195 192 -107 100 -195 190 -195 199 0 10
7 40 15 67 19 64 55 240 55 268 0 16 -13 27 -60 48 -45 20 -60 31 -60 46 0 15
-8 22 -27 24 -21 2 -29 9 -31 28 -2 20 6 33 38 58 35 29 40 38 40 73 0 54 -34
89 -87 89 -21 0 -45 -6 -54 -13 -21 -16 -42 -57 -33 -65 4 -4 9 -1 11 5 30 83
143 72 143 -13 0 -38 -29 -74 -59 -74 -16 0 -20 -8 -23 -42 -3 -39 -6 -43 -30
-46 -22 -3 -28 -9 -28 -27 0 -18 -11 -27 -55 -45 -31 -12 -58 -26 -61 -31 -6
-11 30 -199 57 -290 10 -36 19 -68 19 -70 0 -3 -90 -87 -200 -189 -110 -101
-200 -187 -200 -191 0 -3 20 -25 44 -47 84 -77 227 -132 385 -148 l71 -7 0
-237 0 -237 -66 -7 c-105 -11 -104 -9 -104 -135 0 -87 -3 -110 -15 -115 -20
-7 -522 -7 -552 0 l-24 6 3 917 3 916 27 80 c75 216 225 386 422 475 143 65
306 85 459 56z m-93 -706 c0 -5 -22 -10 -50 -10 -27 0 -50 5 -50 10 0 6 23 10
50 10 28 0 50 -4 50 -10z m69 -64 c44 -43 47 -78 17 -209 -30 -127 -49 -165
-72 -146 -11 9 -14 26 -10 68 l6 56 -18 -57 c-30 -99 -54 -98 -82 3 l-18 64 5
-68 c6 -68 6 -69 -18 -65 -20 2 -27 13 -41 68 -54 197 -51 255 12 298 31 21
44 23 112 20 69 -3 80 -6 107 -32z m-76 -408 c22 -25 27 -27 18 -10 -23 42 -1
37 51 -14 l52 -49 -37 44 c-20 25 -35 46 -32 49 8 8 316 -281 332 -311 19 -37
10 -87 -20 -115 -36 -34 -146 -80 -237 -98 -101 -20 -290 -15 -385 11 -81 22
-159 58 -190 89 -30 30 -34 84 -9 124 21 34 314 305 322 298 3 -4 -5 -18 -19
-33 -20 -23 -18 -22 14 5 45 38 63 42 46 10 -10 -20 -8 -20 17 5 16 15 32 27
37 27 5 0 23 -15 40 -32z"/>
<path d="M4382 3063 c-28 -5 -26 -36 2 -41 14 -3 17 0 13 12 -5 12 0 16 18 16
30 0 44 -36 21 -58 -13 -13 -20 -14 -42 -3 -24 11 -26 10 -14 -3 27 -33 80
-13 80 29 0 22 -29 56 -46 54 -5 -1 -19 -4 -32 -6z"/>
<path d="M250 2620 l0 -50 55 0 55 0 0 50 0 50 -55 0 -55 0 0 -50z"/>
<path d="M8470 2620 l0 -50 50 0 50 0 0 50 0 50 -50 0 -50 0 0 -50z"/>
<path d="M340 2530 c0 -5 20 -10 45 -10 l45 0 0 -150 c0 -93 4 -150 10 -150 6
0 10 57 10 150 l0 150 45 0 c25 0 45 5 45 10 0 6 -40 10 -100 10 -60 0 -100
-4 -100 -10z"/>
<path d="M1691 2527 c-50 -26 -66 -61 -66 -152 0 -97 17 -130 78 -154 32 -12
40 -11 74 5 57 28 75 71 70 166 -4 83 -16 107 -69 134 -33 17 -56 17 -87 1z
m110 -36 c28 -28 29 -34 29 -116 0 -82 -1 -88 -29 -116 -22 -21 -39 -29 -66
-29 -27 0 -44 8 -66 29 -28 28 -29 34 -29 116 0 82 1 88 29 116 22 21 39 29
66 29 27 0 44 -8 66 -29z"/>
<path d="M2028 2534 c-5 -4 -7 -77 -6 -163 1 -101 3 -135 7 -96 l6 60 52 3 51
3 33 -61 c19 -33 37 -60 41 -60 12 0 10 5 -22 60 -16 28 -30 53 -30 56 0 4 11
19 25 36 33 39 34 97 1 134 -20 24 -33 28 -87 32 -35 2 -67 0 -71 -4z m133
-27 c44 -33 50 -87 14 -123 -22 -22 -32 -25 -83 -22 l-57 3 -3 64 c-2 35 -1
70 2 77 7 18 105 18 127 1z"/>
<path d="M3080 2530 c0 -5 18 -10 40 -10 l40 0 0 -150 c0 -199 19 -201 22 -2
l3 147 43 3 c80 6 42 22 -53 22 -57 0 -95 -4 -95 -10z"/>
<path d="M4183 2520 c-46 -27 -53 -48 -53 -148 0 -104 15 -134 79 -153 32 -9
44 -8 75 6 51 24 66 59 66 150 0 87 -16 127 -60 150 -39 20 -68 19 -107 -5z
m119 -29 c32 -29 33 -31 33 -116 0 -85 -1 -87 -33 -116 -36 -32 -69 -36 -111
-14 -35 17 -51 60 -51 130 0 69 16 112 49 130 41 23 77 18 113 -14z"/>
<path d="M4908 2534 c-12 -12 -10 -314 2 -314 6 0 10 27 10 61 l0 60 52 -3
c52 -3 52 -3 86 -61 18 -32 36 -56 39 -53 3 3 -9 31 -27 62 l-31 56 28 30 c38
40 39 97 1 135 -23 22 -38 28 -90 31 -35 2 -66 0 -70 -4z m147 -39 c16 -15 25
-36 25 -55 0 -51 -38 -80 -105 -80 l-55 0 0 80 0 80 55 0 c46 0 60 -4 80 -25z"/>
<path d="M5584 2527 c-2 -7 -3 -80 -2 -162 l3 -150 40 -3 c52 -4 123 32 152
77 17 24 23 49 23 86 0 66 -29 112 -90 143 -49 24 -118 30 -126 9z m120 -21
c81 -34 108 -147 53 -219 -30 -39 -82 -61 -132 -55 l-30 3 -1 130 c-1 72 1
136 3 143 7 16 66 15 107 -2z"/>
<path d="M6061 2527 c-44 -22 -65 -62 -69 -131 -7 -112 31 -178 106 -180 85
-2 127 62 120 182 -5 77 -18 101 -70 128 -33 17 -56 17 -87 1z m110 -36 c28
-28 29 -34 29 -116 0 -82 -1 -88 -29 -116 -22 -21 -39 -29 -66 -29 -27 0 -44
8 -66 29 -28 28 -29 34 -29 116 0 82 1 88 29 116 22 21 39 29 66 29 27 0 44
-8 66 -29z"/>
<path d="M6475 2526 c-51 -22 -65 -54 -65 -148 0 -102 19 -141 78 -159 33 -9
45 -9 76 6 51 24 66 59 66 150 0 90 -15 126 -64 149 -41 19 -51 19 -91 2z m89
-17 c35 -16 56 -67 56 -134 0 -91 -37 -145 -101 -145 -32 0 -74 26 -87 55 -17
38 -15 150 4 186 23 45 77 61 128 38z"/>
<path d="M6808 2534 c-12 -12 -10 -314 2 -314 6 0 10 27 10 61 l0 60 52 -3
c52 -3 52 -3 85 -60 19 -32 38 -58 43 -58 5 0 -7 27 -26 60 l-35 61 30 35 c40
45 40 83 2 126 -25 28 -35 32 -92 36 -35 2 -67 0 -71 -4z m147 -39 c17 -16 25
-35 25 -59 0 -50 -36 -76 -106 -76 l-54 0 0 80 0 80 55 0 c46 0 60 -4 80 -25z"/>
<path d="M7260 2533 c-56 -22 -69 -88 -22 -121 15 -11 37 -23 50 -26 38 -12
82 -56 82 -82 0 -64 -97 -98 -154 -53 -14 11 -26 16 -26 10 0 -22 64 -52 99
-47 72 11 109 59 89 116 -8 24 -25 38 -78 65 -69 35 -84 52 -73 83 17 44 74
55 117 21 29 -23 36 -11 8 14 -20 19 -69 29 -92 20z"/>
<path d="M7555 2530 c-4 -6 12 -10 39 -10 l46 0 0 -150 c0 -93 4 -150 10 -150
6 0 10 57 10 150 l0 150 45 0 c25 0 45 5 45 10 0 6 -38 10 -94 10 -53 0 -98
-4 -101 -10z"/>
<path d="M8290 2379 c0 -104 3 -158 10 -154 6 3 10 30 10 59 l0 54 60 4 c48 3
66 10 86 30 47 46 28 135 -32 158 -14 6 -50 10 -80 10 l-54 0 0 -161z m154
110 c30 -35 32 -49 11 -88 -17 -35 -32 -41 -96 -41 l-49 0 0 80 0 80 54 0 c48
0 57 -3 80 -31z"/>
<path d="M772 2478 c-11 -29 -37 -97 -57 -151 -38 -102 -42 -144 -6 -62 l20
46 72 -3 71 -3 16 -40 c17 -46 20 -50 27 -44 5 6 -101 289 -114 302 -5 5 -17
-13 -29 -45z m62 -69 c14 -38 26 -72 26 -75 0 -2 -27 -4 -60 -4 -33 0 -60 4
-60 9 0 8 17 57 39 114 6 15 15 27 20 27 5 0 20 -32 35 -71z"/>
<path d="M1282 2374 l3 -159 88 -3 c53 -2 87 1 87 7 0 6 -36 11 -82 13 l-83 3
-2 144 c-1 79 -4 146 -8 149 -3 3 -4 -66 -3 -154z"/>
<path d="M2792 2478 c-11 -29 -37 -97 -57 -151 -20 -54 -34 -101 -32 -104 6
-5 37 62 37 79 0 5 35 8 77 6 l76 -3 15 -42 c7 -24 18 -43 23 -43 5 0 9 1 9 3
0 11 -111 292 -118 299 -6 6 -17 -10 -30 -44z m62 -69 c14 -38 26 -72 26 -75
0 -2 -27 -4 -60 -4 -33 0 -60 4 -60 9 0 8 17 57 39 114 6 15 15 27 20 27 5 0
20 -32 35 -71z"/>
<path d="M3750 2525 c0 -4 20 -44 45 -89 41 -75 45 -90 45 -150 0 -37 4 -66
10 -66 6 0 10 29 10 67 0 60 4 73 46 145 25 44 43 85 41 91 -2 7 -23 -23 -46
-65 -24 -43 -46 -78 -49 -78 -4 0 -24 31 -45 70 -34 62 -57 93 -57 75z"/>
<path d="M4522 2406 c3 -119 4 -127 29 -151 51 -51 145 -34 169 31 13 34 13
244 0 244 -6 0 -10 -47 -10 -120 0 -115 -1 -122 -25 -145 -34 -35 -88 -34
-120 1 -23 25 -25 34 -25 140 0 70 -4 115 -11 120 -7 4 -10 -31 -7 -120z"/>
<path d="M7932 2373 l3 -158 88 -3 c55 -2 87 1 87 8 0 6 -31 10 -80 10 l-80 0
0 65 0 65 50 0 c28 0 50 5 50 10 0 6 -22 10 -50 10 l-50 0 0 70 0 69 83 4 82
3 -93 2 -93 2 3 -157z"/>
<path d="M1090 2370 c0 -93 4 -150 10 -150 6 0 10 57 10 150 0 93 -4 150 -10
150 -6 0 -10 -57 -10 -150z"/>
<path d="M250 2110 l0 -50 55 0 55 0 0 50 0 50 -55 0 -55 0 0 -50z"/>
<path d="M8470 2110 l0 -50 50 0 50 0 0 50 0 50 -50 0 -50 0 0 -50z"/>
<path d="M2630 1867 c-13 -7 -29 -25 -35 -40 -15 -43 10 -77 75 -103 71 -28
100 -55 100 -91 -1 -34 -17 -57 -56 -79 l-29 -16 30 7 c65 14 98 80 69 136
-11 22 -35 39 -88 63 -40 18 -76 41 -80 51 -8 22 17 63 47 75 13 5 16 9 7 9
-8 0 -26 -5 -40 -12z"/>
<path d="M2996 1873 c-3 -3 -6 -80 -6 -170 0 -138 2 -163 15 -163 13 0 15 25
15 164 0 150 -5 187 -24 169z"/>
<path d="M3210 1867 c0 -8 6 -17 14 -20 7 -3 53 -73 102 -156 61 -105 94 -151
106 -151 22 0 23 19 3 34 -8 6 -54 76 -102 156 -51 84 -95 146 -105 148 -11 2
-18 -3 -18 -11z"/>
<path d="M4110 1710 c0 -155 2 -170 18 -170 15 0 17 15 17 170 0 155 -2 170
-17 170 -16 0 -18 -15 -18 -170z"/>
<path d="M4955 1869 c39 -11 55 -34 55 -79 0 -39 -15 -57 -102 -121 -66 -48
-103 -129 -59 -129 14 0 18 5 14 20 -4 16 6 32 41 63 121 107 136 124 136 151
0 58 -46 108 -98 105 -9 0 -4 -5 13 -10z"/>
<path d="M5780 1870 c43 -10 60 -33 60 -81 0 -39 -9 -49 -104 -123 -64 -49
-99 -126 -57 -126 14 0 18 5 14 20 -4 16 6 32 41 63 121 107 136 124 136 151
0 61 -46 108 -103 105 -14 -1 -10 -4 13 -9z"/>
<path d="M6190 1868 c42 -16 67 -59 54 -96 -5 -14 -42 -53 -83 -86 -40 -34
-79 -72 -87 -86 -19 -36 -17 -60 5 -60 14 0 18 5 14 18 -6 25 35 72 95 111 61
39 87 84 78 133 -8 43 -32 66 -77 73 l-34 6 35 -13z"/>
<path d="M3710 1844 c-43 -37 -60 -75 -60 -134 0 -66 23 -115 69 -146 51 -35
57 -30 13 11 -36 32 -62 87 -62 131 0 43 24 100 55 131 39 39 29 44 -15 7z"/>
<path d="M3875 1844 c15 -14 30 -22 33 -19 7 7 -37 44 -52 45 -5 0 3 -11 19
-26z"/>
<path d="M5291 1854 c-89 -63 -74 -256 24 -306 15 -8 14 -4 -7 18 -36 39 -48
74 -48 140 0 56 19 115 47 146 20 22 14 23 -16 2z"/>
<path d="M5414 1845 c61 -66 59 -214 -4 -277 -16 -15 -24 -28 -18 -28 5 0 25
15 43 33 43 43 62 122 46 185 -11 40 -63 112 -82 112 -4 0 2 -11 15 -25z"/>
<path d="M3894 1589 c-3 -6 -20 -19 -38 -30 -17 -10 -26 -19 -21 -19 16 0 75
39 75 50 0 13 -7 13 -16 -1z"/>
</g>
</svg>
