<?xml version="1.0" standalone="no"?>
<!DOCTYPE svg PUBLIC "-//W3C//DTD SVG 20010904//EN"
 "http://www.w3.org/TR/2001/REC-SVG-20010904/DTD/svg10.dtd">
<svg version="1.0" xmlns="http://www.w3.org/2000/svg"
 width="2000.000000pt" height="1247.000000pt" viewBox="0 0 2000.000000 1247.000000"
 preserveAspectRatio="xMidYMid meet">

<g transform="translate(0.000000,1247.000000) scale(0.100000,-0.100000)"
fill="#000000" stroke="none">
<path d="M80 8294 l0 -655 208 3 c232 3 262 11 287 71 7 18 32 164 56 325 l44
292 587 0 588 0 0 -788 0 -788 59 -12 c67 -14 165 -74 203 -125 81 -105 98
-187 98 -472 l0 -221 41 -11 c32 -8 51 -8 78 2 l36 12 3 250 2 251 -47 23
c-64 33 -84 63 -90 141 -6 70 10 118 46 138 11 5 59 10 108 10 l88 0 -40 23
c-82 47 -124 153 -95 242 27 81 113 144 198 145 l42 0 0 590 0 590 579 0 579
0 6 -27 c3 -16 24 -149 46 -297 30 -200 45 -277 60 -301 35 -56 74 -65 290
-65 l190 0 0 655 0 655 -2125 0 -2125 0 0 -656z"/>
<path d="M6463 8933 c-4 -10 -444 -1111 -979 -2448 l-972 -2430 -176 -38 c-97
-20 -189 -45 -203 -54 -46 -30 -53 -66 -53 -263 l0 -180 790 0 790 0 0 177 c0
267 0 267 -254 319 -76 16 -140 33 -142 39 -3 6 87 247 199 535 l204 525 1175
3 c935 2 1177 0 1181 -10 129 -321 405 -1053 400 -1058 -5 -4 -71 -20 -148
-35 -172 -35 -199 -45 -225 -87 -18 -30 -20 -50 -20 -220 l0 -188 791 0 791 0
-4 188 c-4 261 2 254 -259 310 l-174 37 -364 908 c-200 500 -367 905 -371 900
-3 -4 -51 -111 -105 -238 -54 -126 -107 -242 -117 -258 -33 -46 -66 -57 -181
-57 -94 0 -105 2 -125 23 -43 46 -40 63 48 257 l83 180 -145 331 -144 331 -49
17 c-72 23 -95 62 -95 157 0 63 3 77 24 101 l24 28 220 5 220 5 -441 1103
-441 1102 -373 0 c-347 0 -374 -1 -380 -17z m516 -1118 c28 -77 226 -592 440
-1145 l389 -1005 -347 -5 c-332 -5 -349 -6 -411 -29 -55 -19 -78 -22 -150 -18
-58 3 -99 11 -130 25 -62 30 -176 30 -222 2 -49 -30 -253 -29 -334 1 -61 23
-61 23 -194 -16 -83 -25 -218 -17 -291 17 -70 32 -134 94 -162 157 -29 64 -35
187 -13 245 55 145 204 234 455 271 51 8 96 17 99 20 3 3 0 23 -7 45 -23 76
-67 78 -214 9 -94 -45 -113 -51 -149 -45 -56 9 -93 38 -128 99 -33 57 -36 74
-19 111 15 31 107 104 174 139 148 75 343 84 466 22 l47 -23 212 546 c142 368
234 622 281 776 38 125 69 231 69 235 1 3 21 -61 45 -144 24 -82 66 -213 94
-290z"/>
<path d="M6742 6933 c-5 -10 -17 -82 -27 -160 l-18 -141 -56 -7 c-95 -11 -101
-14 -101 -47 0 -57 14 -68 85 -68 l65 0 0 -306 c0 -197 4 -321 12 -351 15 -62
78 -127 138 -143 87 -24 239 9 285 61 16 17 16 21 -9 64 -15 25 -31 45 -37 45
-5 0 -28 -9 -51 -21 -68 -34 -132 -25 -160 24 -10 16 -14 103 -16 325 l-4 302
136 0 136 0 0 60 0 60 -135 0 -135 0 0 160 0 160 -50 0 c-37 0 -51 -4 -58 -17z"/>
<path d="M5878 6641 c-55 -18 -126 -58 -177 -102 -24 -19 -24 -21 -8 -55 30
-62 52 -63 163 -8 89 45 104 49 168 49 57 0 77 -4 102 -22 47 -34 68 -85 72
-179 l4 -80 -114 -12 c-317 -33 -467 -134 -456 -306 5 -87 43 -148 118 -190
51 -29 62 -31 150 -31 86 0 101 3 160 31 36 17 82 45 104 63 21 17 42 31 47
31 4 0 11 -20 14 -45 10 -65 21 -70 154 -70 l116 0 3 31 c6 60 -10 80 -77 93
l-61 12 0 268 c0 244 -2 275 -21 336 -26 85 -97 162 -173 188 -68 23 -212 22
-288 -2z m322 -610 l0 -99 -49 -36 c-76 -56 -128 -76 -199 -76 -112 0 -162 41
-162 134 0 36 6 52 30 80 49 55 173 93 313 95 l67 1 0 -99z"/>
<path d="M5930 5998 c-31 -16 -46 -30 -48 -47 -5 -29 12 -41 58 -41 33 0 36 3
57 55 l21 55 -22 0 c-12 0 -42 -10 -66 -22z"/>
<path d="M9192 8756 c3 -192 3 -195 28 -221 14 -15 33 -31 43 -37 10 -5 120
-31 245 -58 168 -36 230 -54 240 -67 7 -10 243 -396 524 -858 281 -462 513
-842 516 -845 3 -3 7 1 10 9 3 8 16 26 29 39 23 23 26 23 188 20 162 -3 165
-3 191 -29 l26 -26 54 29 c33 18 84 35 128 42 l73 11 -474 804 c-261 442 -471
807 -466 811 4 4 100 27 212 50 258 53 291 63 325 99 37 39 45 84 46 269 l0
152 -971 0 -970 0 3 -194z"/>
<path d="M12382 8756 c3 -192 3 -195 28 -221 14 -15 33 -31 43 -37 10 -5 131
-34 269 -63 138 -30 252 -56 254 -58 2 -1 -161 -281 -361 -621 -201 -340 -365
-620 -365 -622 0 -2 127 -4 283 -4 245 0 382 -8 437 -25 11 -3 122 172 405
637 230 377 398 644 410 649 11 5 108 27 215 50 107 22 214 49 238 61 70 33
76 55 80 266 l4 182 -972 0 -971 0 3 -194z"/>
<path d="M14672 8756 c3 -192 3 -195 28 -221 14 -15 33 -31 43 -37 11 -5 119
-31 240 -57 l222 -48 3 -834 2 -834 58 -30 c124 -65 225 -206 257 -360 31
-146 12 -320 -48 -444 -40 -83 -141 -188 -214 -222 l-52 -24 -3 -784 -3 -785
-225 -47 c-123 -26 -235 -53 -247 -58 -13 -6 -32 -25 -43 -43 -18 -30 -20 -51
-20 -221 l0 -188 1448 4 c1444 3 1447 3 1587 25 592 95 1049 311 1434 678 321
305 564 731 681 1194 152 597 125 1301 -70 1865 -57 164 -182 416 -278 560
-229 344 -522 606 -893 799 -264 138 -534 223 -874 278 -140 22 -144 22 -1588
25 l-1448 4 3 -195z m2975 -434 c275 -52 483 -133 688 -266 392 -255 665 -683
771 -1208 15 -73 28 -134 29 -136 1 -1 18 4 38 13 65 27 172 38 245 25 189
-33 318 -181 358 -410 19 -108 14 -249 -11 -340 -38 -142 -134 -274 -242 -332
-100 -55 -234 -72 -341 -44 -42 10 -52 11 -52 0 0 -7 15 -17 33 -24 75 -25 97
-63 97 -165 0 -67 -3 -79 -25 -100 -22 -23 -32 -25 -118 -25 l-93 0 -40 -97
c-44 -109 -136 -277 -206 -374 -231 -322 -574 -554 -963 -653 -241 -61 -222
-60 -1077 -63 l-788 -4 0 750 0 751 -200 0 c-216 0 -242 5 -266 51 -18 36 -18
130 0 174 15 35 67 75 99 75 16 0 17 19 17 258 l-1 257 -47 22 c-61 29 -82 69
-82 159 0 59 3 68 29 95 l29 29 152 0 c154 0 188 -7 219 -44 10 -12 16 -13 32
-3 18 11 19 35 19 835 l0 823 793 -4 c759 -4 797 -5 904 -25z"/>
<path d="M17296 6941 c-5 -7 -46 -285 -46 -307 0 -1 -26 -6 -57 -9 -95 -11
-94 -10 -91 -63 l3 -47 68 -3 67 -3 0 -288 c0 -316 7 -377 48 -435 68 -98 224
-113 361 -35 l52 30 -22 37 c-40 66 -39 66 -105 39 -71 -30 -104 -26 -139 15
l-25 30 0 304 0 304 130 0 130 0 0 60 0 60 -130 0 -130 0 0 160 0 160 -54 0
c-30 0 -57 -4 -60 -9z"/>
<path d="M16030 6644 c-56 -24 -95 -60 -138 -123 l-40 -60 -7 82 c-4 45 -11
88 -17 95 -7 8 -48 12 -139 12 l-129 0 0 -44 c0 -47 18 -76 48 -76 9 0 34 -5
55 -11 l37 -10 0 -329 0 -329 -60 -12 c-69 -13 -83 -29 -78 -87 l3 -37 213 -3
212 -2 0 54 0 55 -37 10 c-21 5 -50 13 -65 17 l-28 6 0 229 c0 223 1 231 24
277 30 59 90 115 141 132 26 8 65 10 125 6 99 -8 92 -15 106 90 6 51 6 51 -26
63 -46 16 -158 13 -200 -5z"/>
<path d="M16562 6642 c-109 -39 -183 -126 -190 -222 -6 -86 4 -126 45 -171 44
-48 114 -85 245 -128 153 -51 193 -87 185 -169 -6 -53 -50 -104 -106 -121 -53
-16 -148 -14 -208 4 -49 15 -52 17 -58 58 -15 101 -12 97 -61 97 l-45 0 3
-122 3 -123 75 -17 c262 -63 449 -10 526 148 23 46 26 64 22 127 -6 132 -62
184 -273 253 -60 20 -125 45 -143 56 -35 21 -62 64 -62 98 0 56 59 112 133
125 40 8 155 -1 175 -14 7 -4 17 -36 23 -72 6 -35 16 -67 22 -71 7 -4 29 -8
50 -8 l38 0 -3 122 -3 121 -65 19 c-98 29 -261 34 -328 10z"/>
<path d="M18098 6641 c-75 -24 -116 -51 -172 -111 -120 -128 -156 -350 -87
-543 84 -241 347 -347 613 -247 64 24 144 74 152 96 7 19 -41 84 -63 84 -9 0
-59 -19 -111 -42 -86 -39 -102 -43 -175 -43 -71 0 -86 4 -135 31 -88 50 -150
161 -150 271 l0 43 320 0 320 0 11 28 c16 39 -5 170 -37 243 -31 70 -112 150
-181 182 -68 30 -225 35 -305 8z m247 -120 c22 -10 55 -34 72 -54 32 -36 63
-118 63 -164 l0 -23 -252 2 -253 3 3 30 c10 89 92 192 170 213 62 17 153 13
197 -7z"/>
<path d="M19224 6646 c-48 -15 -116 -61 -159 -105 -26 -28 -30 -30 -37 -14 -3
10 -7 32 -7 48 -1 17 -8 41 -17 53 -14 21 -22 22 -140 22 l-124 0 0 -49 c0
-56 4 -60 75 -76 l50 -12 3 -490 2 -490 -59 -12 c-64 -13 -71 -20 -71 -82 l0
-39 216 0 215 0 -3 53 -3 52 -62 14 -63 15 0 133 c0 142 0 142 45 102 35 -31
112 -59 177 -66 198 -18 366 117 419 337 16 69 16 236 0 315 -30 140 -116 254
-218 289 -56 19 -181 20 -239 2z m162 -135 c108 -49 164 -221 135 -410 -16
-99 -45 -163 -96 -210 -52 -48 -108 -65 -190 -58 -69 5 -115 25 -162 70 l-33
31 0 231 0 231 48 46 c26 26 67 56 92 67 58 27 150 27 206 2z"/>
<path d="M19214 6426 c-18 -8 -34 -19 -38 -24 -3 -6 -8 -112 -10 -236 l-5
-225 37 -11 c152 -42 235 52 234 265 0 110 -14 166 -51 207 -23 26 -36 32 -82
35 -33 2 -66 -2 -85 -11z"/>
<path d="M2832 7018 l3 -53 63 -14 62 -15 0 -542 0 -542 -52 -12 c-71 -17 -78
-24 -78 -81 l0 -49 213 2 212 3 3 43 c4 53 -7 68 -56 76 -80 15 -72 -55 -72
627 l0 609 -151 0 -150 0 3 -52z"/>
<path d="M2500 7053 c-31 -11 -70 -58 -76 -90 -14 -72 39 -133 113 -133 38 0
50 5 79 34 28 28 34 41 34 78 0 24 -7 54 -16 66 -28 41 -89 61 -134 45z"/>
<path d="M307 7033 c-4 -3 -7 -75 -7 -160 l0 -153 60 0 c67 0 63 -5 78 100 l7
55 143 3 142 3 0 -515 0 -514 -52 -12 c-71 -17 -78 -24 -78 -81 l0 -49 220 0
221 0 -3 57 -3 58 -62 13 -63 14 0 514 0 514 139 0 c157 0 144 7 157 -85 3
-27 11 -56 16 -62 6 -8 33 -13 64 -13 l55 0 -3 158 -3 157 -511 3 c-281 1
-514 -1 -517 -5z"/>
<path d="M12150 6992 c0 -55 9 -66 60 -77 78 -15 70 44 70 -540 0 -584 8 -525
-70 -540 -51 -11 -60 -22 -60 -77 l0 -50 368 4 c333 5 374 7 445 26 225 61
375 212 438 437 31 112 31 288 0 400 -63 225 -213 376 -438 437 -71 19 -112
21 -445 26 l-368 4 0 -50z m731 -112 c172 -33 296 -155 343 -337 21 -79 21
-259 1 -337 -47 -182 -172 -303 -344 -336 -30 -5 -136 -10 -237 -10 l-184 0 0
515 0 515 184 0 c101 0 207 -5 237 -10z"/>
<path d="M12560 6603 c0 -108 2 -194 4 -192 3 3 208 339 233 382 2 4 -50 7
-116 7 l-121 0 0 -197z"/>
<path d="M12017 6743 c-41 -70 -94 -166 -117 -213 -48 -96 -130 -302 -130
-327 0 -30 -15 0 -65 127 -26 69 -50 127 -52 130 -3 3 -13 -6 -24 -19 -27 -33
-81 -50 -132 -40 -105 20 -161 -1 -204 -76 -21 -37 -23 -52 -23 -218 l0 -177
28 -10 c86 -32 107 -64 104 -160 -1 -36 -6 -429 -10 -874 l-7 -810 -225 -47
c-123 -26 -235 -53 -247 -58 -13 -6 -32 -25 -43 -43 -18 -30 -20 -51 -20 -220
l0 -188 905 0 905 0 0 180 c0 195 -8 235 -52 264 -13 8 -127 37 -253 64 l-230
48 -3 771 -2 772 -30 30 c-28 27 -30 35 -30 101 0 99 32 154 97 166 l33 6 0
453 0 453 -32 6 c-17 3 -39 13 -49 22 -15 14 -22 5 -92 -113z"/>
<path d="M1658 6649 c-54 -12 -146 -61 -192 -101 l-38 -33 22 -37 c12 -20 30
-40 41 -43 13 -4 58 12 130 45 102 49 114 52 170 48 105 -8 155 -70 166 -205
l6 -79 -119 -12 c-205 -20 -327 -65 -401 -145 -67 -73 -79 -167 -33 -258 85
-166 357 -170 536 -7 l21 19 14 -58 c17 -69 21 -71 167 -72 l102 -1 0 49 c0
54 -9 66 -60 76 -77 15 -70 -10 -70 253 0 130 -5 266 -11 302 -20 129 -102
230 -207 260 -44 12 -192 12 -244 -1z m302 -613 l0 -94 -42 -36 c-67 -57 -123
-80 -208 -84 -66 -3 -79 -1 -110 20 -92 62 -77 181 30 234 60 30 168 52 258
53 l72 1 0 -94z"/>
<path d="M1853 6005 c0 -22 2 -30 4 -17 2 12 2 30 0 40 -3 9 -5 -1 -4 -23z"/>
<path d="M3644 6639 c-200 -69 -315 -284 -285 -529 29 -229 157 -369 366 -402
237 -37 435 86 497 311 23 82 24 234 3 316 -36 136 -131 252 -243 296 -84 33
-254 37 -338 8z m271 -128 c52 -24 99 -74 126 -136 34 -75 39 -258 11 -352
-25 -79 -67 -134 -125 -165 -63 -34 -195 -32 -257 2 -96 54 -143 159 -143 320
0 233 91 350 272 350 53 0 88 -6 116 -19z"/>
<path d="M4824 6646 c-44 -19 -112 -82 -145 -135 -33 -50 -36 -46 -41 52 -3
46 -9 71 -19 78 -7 5 -69 9 -136 9 l-123 0 0 -49 c0 -56 4 -60 75 -76 l50 -12
3 -330 2 -331 -27 -6 c-16 -4 -45 -12 -65 -17 l-38 -10 0 -55 0 -54 213 2 212
3 3 37 c5 58 -9 74 -78 87 l-60 12 0 225 c0 218 1 226 24 273 35 69 70 106
122 132 42 20 56 21 140 15 106 -7 99 -12 112 78 l9 58 -33 14 c-42 18 -159
17 -200 0z"/>
<path d="M9096 6639 c-109 -38 -193 -113 -241 -215 -35 -74 -47 -136 -46 -249
0 -221 97 -375 279 -446 74 -29 229 -32 312 -7 115 35 213 132 261 257 16 40
23 87 27 164 8 188 -28 298 -132 403 -83 83 -144 106 -291 111 -92 3 -120 0
-169 -18z m269 -128 c52 -24 98 -74 127 -136 21 -45 23 -65 23 -195 0 -159
-10 -197 -70 -268 -48 -57 -98 -76 -195 -76 -68 0 -93 4 -126 21 -111 59 -167
213 -144 396 16 132 68 218 155 258 55 25 175 25 230 0z"/>
<path d="M11345 6641 c-41 -19 -104 -80 -146 -141 l-24 -35 -6 78 c-4 42 -12
84 -19 92 -10 12 -39 15 -136 15 l-124 0 0 -49 c0 -57 5 -62 75 -76 l50 -10 3
-332 2 -331 -62 -14 -63 -13 -3 -58 -3 -57 211 0 211 0 -3 57 -3 58 -62 13
-63 14 0 232 0 233 38 59 c72 109 114 130 248 120 104 -8 99 -12 110 82 l6 59
-32 12 c-51 17 -159 13 -205 -8z"/>
<path d="M13834 6639 c-159 -55 -262 -194 -283 -381 -29 -256 74 -450 278
-529 73 -29 229 -32 311 -7 115 35 213 132 261 257 16 40 23 87 27 164 8 188
-28 298 -132 403 -84 83 -144 106 -291 111 -92 3 -120 0 -171 -18z m271 -128
c52 -24 99 -74 126 -136 34 -75 39 -258 11 -352 -25 -79 -67 -134 -125 -165
-60 -32 -194 -32 -253 -1 -111 59 -167 213 -144 396 16 132 68 218 155 258 55
25 175 25 230 0z"/>
<path d="M14849 6637 c-89 -30 -144 -70 -195 -139 -111 -151 -125 -405 -32
-579 83 -157 263 -240 458 -211 188 28 313 150 355 349 52 245 -43 477 -232
565 -60 29 -79 32 -178 35 -95 3 -119 1 -176 -20z m255 -119 c97 -29 163 -143
173 -299 15 -228 -75 -371 -244 -386 -130 -12 -228 47 -275 165 -31 80 -33
279 -3 362 24 65 97 144 146 159 49 13 155 13 203 -1z"/>
<path d="M2330 6602 c0 -49 12 -72 40 -72 8 0 32 -5 53 -11 l37 -10 0 -329 0
-328 -62 -14 -63 -13 -3 -58 -3 -57 211 0 211 0 -3 57 -3 58 -62 13 -63 14 0
399 0 399 -145 0 -145 0 0 -48z"/>
<path d="M7700 6600 c0 -55 10 -65 77 -76 l39 -6 152 -346 c84 -191 157 -360
163 -377 10 -27 4 -45 -70 -207 -45 -97 -81 -179 -81 -182 0 -13 148 -6 158 7
6 7 117 258 245 558 l234 544 44 10 c64 14 69 20 69 76 l0 49 -205 0 -205 0 0
-49 c0 -56 9 -66 65 -75 22 -4 46 -10 53 -15 9 -5 -19 -83 -103 -287 -63 -153
-115 -271 -115 -262 0 9 -49 135 -110 278 -60 144 -110 265 -110 270 0 4 20
11 45 14 59 9 75 27 75 82 l0 44 -210 0 -210 0 0 -50z"/>
<path d="M9770 6601 c0 -56 4 -60 75 -76 l50 -11 5 -285 c7 -324 14 -360 91
-439 63 -65 117 -85 224 -85 81 0 97 3 155 32 36 17 84 48 108 68 45 39 46 39
56 -29 3 -22 10 -44 16 -50 6 -6 64 -12 135 -14 l125 -4 0 50 c0 58 -7 65 -77
82 l-53 12 0 399 0 399 -150 0 -150 0 0 -49 c0 -56 4 -60 75 -76 l50 -12 3
-280 2 -281 -42 -36 c-57 -49 -117 -76 -181 -83 -95 -10 -158 23 -200 102 -21
38 -22 55 -25 378 l-4 337 -144 0 -144 0 0 -49z"/>
<path d="M8159 6471 l-36 -26 50 -118 c28 -65 54 -114 57 -110 4 4 15 28 24
53 l17 45 -37 90 c-20 50 -37 91 -37 91 -1 1 -18 -11 -38 -25z"/>
<path d="M1852 6360 c0 -19 2 -27 5 -17 2 9 2 25 0 35 -3 9 -5 1 -5 -18z"/>
<path d="M1878 5664 l-28 -15 0 -784 c0 -738 -1 -784 -17 -789 -10 -3 -115
-26 -233 -51 -129 -27 -225 -53 -240 -64 -49 -35 -55 -62 -58 -258 l-3 -183
916 0 917 0 -4 188 c-3 202 -8 222 -62 257 -13 9 -117 35 -232 60 -115 24
-219 47 -231 50 l-23 5 0 770 0 770 -137 1 c-76 1 -197 0 -268 -1 -139 -2
-197 8 -238 40 -30 23 -25 23 -59 4z"/>
</g>
</svg>
